<svg xmlns="http://www.w3.org/2000/svg" viewBox="0 0 922 523" role="img" aria-label="LASTOP GROUP">
  <defs>
    <style>
      .lg{fill:#1E8A4C}
    </style>
  </defs>
  <g class="lg">
    <polygon points="119,45 246,119 119,193 -8,119"/>
    <polygon points="119,205 246,131 246,279 119,353" opacity=".92"/>
    <polygon points="119,205 119,353 -8,279 -8,131" opacity=".78"/>
    <polygon points="300,91 354,122 300,153 246,122" opacity=".86"/>
    <polygon points="300,164 354,133 354,192 300,223" opacity=".74"/>
    <polygon points="300,164 300,223 246,192 246,133" opacity=".62"/>
    <path d="M392 177h37v159h98v31H392z"/>
    <path d="M558 177h143v31h-106v35h94v30h-94v63h111v31H558z"/>
    <path d="M725 177h37v128h90v31H725z"/>
    <path d="M393 379h148v28H428v33h99v28h-99v52h-35z"/>
    <path d="M560 379h148v28H595v33h99v28h-99v24h113v28H560z"/>
    <path d="M726 379h37l78 141h-40l-16-31h-81l-16 31h-40zm47 84-28-53-27 53z"/>
    <path d="M851 379h37v141h-37z"/>
  </g>
</svg>
